<?xml version="1.0" encoding="utf-8"?>
<svg version="1.1" id="Capa_1" xmlns="http://www.w3.org/2000/svg" xmlns:xlink="http://www.w3.org/1999/xlink" x="0px" y="0px" width="55px" height="49px" viewBox="0 0 55 49" style="enable-background:new 0 0 55 49;" xml:space="preserve">
  <style type="text/css">
   .st0{fill:none;stroke:url(#Rectangle-7_3_);}
   .st1{fill:none;stroke:url(#Rectangle-7_4_);}
   .st2{fill:none;stroke:url(#Rectangle-7_5_);}
   .st3{fill:none;stroke:url(#SVGID_1_);}
   .st4{fill:none;stroke:url(#SVGID_2_);}
   .st5{fill:none;stroke:url(#SVGID_3_);}
   @keyframes offset {
   100% {
   stroke-dashoffset: 0;
   }
   }
   .offset{
   fill: none;
   stroke: #fff;
   stroke-width: 2px;
   stroke-dasharray: 500;
   stroke-dashoffset: 500;
   animation: offset 3s ease-in-out forwards;
   }
   .offset-01{
   fill: none;
   stroke: #fff;
   stroke-width: 2px;
   stroke-dasharray: 500;
   stroke-dashoffset: 500;
   animation: offset 2s ease-in-out alternate infinite;
   animation-delay: 1.5s;
   }
   .offset-02{
   fill: none;
   stroke: #fff;
   stroke-width: 2px;
   stroke-dasharray: 500;
   stroke-dashoffset: 500;
   animation: offset 2s ease-in-out alternate infinite;
   animation-delay: 2s;
   }
   .offset-03{
   fill: none;
   stroke: #fff;
   stroke-width: 2px;
   stroke-dasharray: 500;
   stroke-dashoffset: 500;
   animation: offset 2s ease-in-out alternate infinite;
   animation-delay: 2.5s;
   }
   @-webkit-keyframes rotate {
   0%, 20%, 50%, 80%, 100% {-webkit-transform: rotate(0);} 
   40% {-webkit-transform: rotate(-18deg);}
   60% {-webkit-transform: rotate(-18deg);}
   }

   @-moz-keyframes rotate {
   0%, 20%, 50%, 80%, 100% {-moz-transform: rotate(0);}
   40% {-moz-transform: rotate(-18deg);}
   60% {-moz-transform: rotate(-18deg);}
   }

   @-o-keyframes rotate {
   0%, 20%, 50%, 80%, 100% {-o-transform: rotate(0);}
   40% {-o-transform: rotate(-5deg);}
   60% {-o-transform: rotate(5deg);}
   }
   @keyframes rotate {
   0%, 20%, 50%, 80%, 100% {transform: rotate(0);}
   40% {transform: rotate(-5deg);}
   60% {transform: rotate(5deg);}
   }

   .rotate{
   animation: rotate 2s  ease-in-out alternate infinite;
   -webkit-animation: rotate 2s  ease-in-out alternate infinite;
   -moz-animation: rotate 2s  ease-in-out alternate infinite;
   -o-animation: rotate 2s  ease-in-out alternate infinite;
   animation-delay: 3s;
   transform-origin: 50% 100%;
   }
</style>
<g class="rotate">
<g class="offset">

    <linearGradient id="Rectangle-7_3_" gradientUnits="userSpaceOnUse" x1="-570.9166" y1="12.5532" x2="-569.9166" y2="13.5532" gradientTransform="matrix(30 0 0 47 17140 -589)">
        <stop  offset="0" style="stop-color:#0022FF"/>
        <stop  offset="1" style="stop-color:#3E6EFF"/>
    </linearGradient>
    <path id="Rectangle-7" class="st0" d="M16.5,1h22c2.2,0,4,1.8,4,4v39c0,2.2-1.8,4-4,4h-22c-2.2,0-4-1.8-4-4V5
        C12.5,2.8,14.3,1,16.5,1z"/>

        <linearGradient id="Rectangle-7_4_" gradientUnits="userSpaceOnUse" x1="-563.6136" y1="18.4375" x2="-562.6136" y2="19.4375" gradientTransform="matrix(22 0 0 32 12416 -585)">
            <stop  offset="0" style="stop-color:#0022FF"/>
            <stop  offset="1" style="stop-color:#3E6EFF"/>
        </linearGradient>
        <path id="Rectangle-7_1_" class="st1" d="M18.5,5h18c1.1,0,2,0.9,2,2v28c0,1.1-0.9,2-2,2h-18c-1.1,0-2-0.9-2-2V7
            C16.5,5.9,17.4,5,18.5,5z"/>

            <linearGradient id="Rectangle-7_5_" gradientUnits="userSpaceOnUse" x1="-470.5" y1="118" x2="-469.5" y2="119" gradientTransform="matrix(5 0 0 5 2377 -550)">
                <stop  offset="0" style="stop-color:#0022FF"/>
                <stop  offset="1" style="stop-color:#3E6EFF"/>
            </linearGradient>
            <path id="Rectangle-7_2_" class="st2" d="M27,40L27,40c1.4,0,2.5,1.1,2.5,2.5l0,0c0,1.4-1.1,2.5-2.5,2.5l0,0
                c-1.4,0-2.5-1.1-2.5-2.5l0,0C24.5,41.1,25.6,40,27,40z"/>
            </g>
            <g class="offset-01">

                <linearGradient id="SVGID_1_" gradientUnits="userSpaceOnUse" x1="24.019" y1="36" x2="30.981" y2="36" gradientTransform="matrix(1 0 0 -1 0 50)">
                    <stop  offset="0" style="stop-color:#0022FF"/>
                    <stop  offset="1" style="stop-color:#3E6EFF"/>
                </linearGradient>
                <line class="st3" x1="20.5" y1="14" x2="34.5" y2="14"/>
            </g>
            <g class="offset-02">

                <linearGradient id="SVGID_2_" gradientUnits="userSpaceOnUse" x1="24.019" y1="29" x2="30.981" y2="29" gradientTransform="matrix(1 0 0 -1 0 50)">
                    <stop  offset="0" style="stop-color:#0022FF"/>
                    <stop  offset="1" style="stop-color:#3E6EFF"/>
                </linearGradient>
                <line class="st4" x1="20.5" y1="21" x2="34.5" y2="21"/>
            </g>
            <g class="offset-03">

                <linearGradient id="SVGID_3_" gradientUnits="userSpaceOnUse" x1="24.019" y1="21" x2="30.981" y2="21" gradientTransform="matrix(1 0 0 -1 0 50)">
                    <stop  offset="0" style="stop-color:#0022FF"/>
                    <stop  offset="1" style="stop-color:#3E6EFF"/>
                </linearGradient>
                <line class="st5" x1="20.5" y1="29" x2="34.5" y2="29"/>
            </g>
        </g>
        </svg>