<?xml version="1.0" encoding="utf-8"?>
<!-- Generator: Adobe Illustrator 19.2.0, SVG Export Plug-In . SVG Version: 6.00 Build 0)  -->
<svg version="1.1" id="Capa_2" xmlns="http://www.w3.org/2000/svg" xmlns:xlink="http://www.w3.org/1999/xlink" x="0px" y="0px"
	width="48px" height="45px" viewBox="0 0 48 45" style="enable-background:new 0 0 48 45;" xml:space="preserve">
	<style type="text/css">
		.st0{fill:none;stroke:url(#line_1_);}
		.st1{fill:none;stroke:url(#SVGID_1_);}
		.st2{fill:none;stroke:url(#SVGID_2_);}
		.st3{fill:none;stroke:url(#SVGID_3_);}
		.st4{fill:none;stroke:url(#SVGID_4_);}
		.st5{fill:none;stroke:url(#SVGID_5_);}
		.st6{fill:none;stroke:url(#SVGID_6_);}
		.st7{fill:none;stroke:url(#SVGID_7_);}
		.st8{fill:none;stroke:url(#SVGID_8_);}
		.st9{fill:none;stroke:url(#SVGID_9_);}
		.st10{fill:none;stroke:url(#SVGID_10_);}
		@keyframes offset {
		100% {
		stroke-dashoffset: 0;
		}
		}

		.offset{
		fill: none;
		stroke: #fff;
		stroke-width: 2px;
		stroke-dasharray: 500;
		stroke-dashoffset: 500;
		animation: offset 3s ease-in-out alternate infinite;
		animation-delay: 1s;
		}
	</style>
	<g style="fill: none; stroke: #fff; stroke-width: 2px;">
		<linearGradient id="line_1_" gradientUnits="userSpaceOnUse" x1="0.375" y1="22.6063" x2="44.571" y2="22.6063">
			<stop  offset="0" style="stop-color:#0022FF"/>
			<stop  offset="1" style="stop-color:#3E6EFF"/>
		</linearGradient>
		<polyline id="line" class="st0" points="1.4,0.9 1.4,43.3 44.6,43.3 "/>
	</g>
	<g id="arrow" class="offset">
		<linearGradient id="SVGID_1_" gradientUnits="userSpaceOnUse" x1="5.55" y1="23.0856" x2="40.0949" y2="23.0856">
			<stop  offset="0" style="stop-color:#0022FF"/>
			<stop  offset="1" style="stop-color:#3E6EFF"/>
		</linearGradient>
		<polyline class="st1" points="6.3,34.2 19.4,19.4 27.1,25.3 39.4,12 	"/>

		<linearGradient id="SVGID_2_" gradientUnits="userSpaceOnUse" x1="36.9498" y1="5.044" x2="46.8931" y2="5.044" gradientTransform="matrix(0.8868 0.8514 -0.6926 0.7214 9.1022 -30.3787)">
			<stop  offset="0" style="stop-color:#0022FF"/>
			<stop  offset="1" style="stop-color:#3E6EFF"/>
		</linearGradient>
		<path class="st2" d="M42.4,15.2l-5.8-5.6c-0.5-0.5-0.3-1.2,0.3-1.5l8.3-2.9c0.7-0.2,1.3,0.4,1.1,1.1l-2.5,8.4
			C43.6,15.4,42.8,15.6,42.4,15.2z"/>
		</g>
		<g id="bars" class="offset" style="animation-delay: 2s;">
			<linearGradient id="SVGID_3_" gradientUnits="userSpaceOnUse" x1="5.75" y1="38.7" x2="7.75" y2="38.7">
				<stop  offset="0" style="stop-color:#0022FF"/>
				<stop  offset="1" style="stop-color:#3E6EFF"/>
			</linearGradient>
			<line class="st3" x1="6.8" y1="40" x2="6.8" y2="37.3"/>
			<linearGradient id="SVGID_4_" gradientUnits="userSpaceOnUse" x1="10.7" y1="37.125" x2="12.7" y2="37.125">
				<stop  offset="0" style="stop-color:#0022FF"/>
				<stop  offset="1" style="stop-color:#3E6EFF"/>
			</linearGradient>
			<line class="st4" x1="11.7" y1="40" x2="11.7" y2="34.2"/>
			<linearGradient id="SVGID_5_" gradientUnits="userSpaceOnUse" x1="15.65" y1="34.4205" x2="17.65" y2="34.4205">
				<stop  offset="0" style="stop-color:#0022FF"/>
				<stop  offset="1" style="stop-color:#3E6EFF"/>
			</linearGradient>
			<line class="st5" x1="16.6" y1="40" x2="16.6" y2="28.8"/>
			<linearGradient id="SVGID_6_" gradientUnits="userSpaceOnUse" x1="20.6" y1="33.075" x2="22.6" y2="33.075">
				<stop  offset="0" style="stop-color:#0022FF"/>
				<stop  offset="1" style="stop-color:#3E6EFF"/>
			</linearGradient>
			<line class="st6" x1="21.6" y1="40" x2="21.6" y2="26.1"/>
			<linearGradient id="SVGID_7_" gradientUnits="userSpaceOnUse" x1="25.55" y1="34.4205" x2="27.55" y2="34.4205">
				<stop  offset="0" style="stop-color:#0022FF"/>
				<stop  offset="1" style="stop-color:#3E6EFF"/>
			</linearGradient>
			<line class="st7" x1="26.5" y1="40" x2="26.5" y2="28.8"/>
			<linearGradient id="SVGID_8_" gradientUnits="userSpaceOnUse" x1="30.5" y1="33.525" x2="32.5" y2="33.525">
				<stop  offset="0" style="stop-color:#0022FF"/>
				<stop  offset="1" style="stop-color:#3E6EFF"/>
			</linearGradient>
			<line class="st8" x1="31.5" y1="40" x2="31.5" y2="27"/>
			<linearGradient id="SVGID_9_" gradientUnits="userSpaceOnUse" x1="35.45" y1="30.8225" x2="37.45" y2="30.8225">
				<stop  offset="0" style="stop-color:#0022FF"/>
				<stop  offset="1" style="stop-color:#3E6EFF"/>
			</linearGradient>
			<line class="st9" x1="36.4" y1="40" x2="36.4" y2="21.6"/>
			<linearGradient id="SVGID_10_" gradientUnits="userSpaceOnUse" x1="40.4" y1="29.025" x2="42.4" y2="29.025">
				<stop  offset="0" style="stop-color:#0022FF"/>
				<stop  offset="1" style="stop-color:#3E6EFF"/>
			</linearGradient>
			<line class="st10" x1="41.4" y1="40" x2="41.4" y2="18"/>
		</g>
	</svg>
