<?xml version="1.0" encoding="utf-8"?>
<!-- Generator: Adobe Illustrator 19.2.0, SVG Export Plug-In . SVG Version: 6.00 Build 0)  -->
<svg version="1.1" id="Capa_1" xmlns="http://www.w3.org/2000/svg" xmlns:xlink="http://www.w3.org/1999/xlink" x="0px" y="0px"
	width="59px" height="47px" viewBox="0 0 59 47" style="enable-background:new 0 0 59 47;" xml:space="preserve">
	<style type="text/css">
		.st0{fill:url(#SVGID_1_);}
		.st1{fill:url(#SVGID_2_);}
		.st2{fill:url(#SVGID_3_);}
		@-webkit-keyframes bounce {
		0%, 20%, 50%, 80%, 100% {-webkit-transform: translateX(0);} 
		40% {-webkit-transform: translateX(-2px);}
		60% {-webkit-transform: translateX(-2px);}
		}

		@-moz-keyframes bounce {
		0%, 20%, 50%, 80%, 100% {-moz-transform: translateX(0);}
		40% {-moz-transform: translateX(-2px);}
		60% {-moz-transform: translateX(-2px);}
		}

		@-o-keyframes bounce {
		0%, 20%, 50%, 80%, 100% {-o-transform: translateX(0);}
		40% {-o-transform: translateX(-2px);}
		60% {-o-transform: translateX(-2px);}
		}
		@keyframes bounce {
		0%, 20%, 50%, 80%, 100% {transform: translateX(0);}
		40% {transform: translateX(-2px);}
		60% {transform: translateX(-2px);}
		}

		@-webkit-keyframes bounce-2 {
		0%, 20%, 50%, 80%, 100% {-webkit-transform: translateX(0);} 
		40% {-webkit-transform: translateX(2px);}
		60% {-webkit-transform: translateX(2px);}
		}

		@-moz-keyframes bounce-2 {
		0%, 20%, 50%, 80%, 100% {-moz-transform: translateX(0);}
		40% {-moz-transform: translateX(2px);}
		60% {-moz-transform: translateX(2px);}
		}

		@-o-keyframes bounce-2 {
		0%, 20%, 50%, 80%, 100% {-o-transform: translateX(0);}
		40% {-o-transform: translateX(2px);}
		60% {-o-transform: translateX(2px);}
		}
		@keyframes bounce-2 {
		0%, 20%, 50%, 80%, 100% {transform: translateX(0);}
		40% {transform: translateX(2px);}
		60% {transform: translateX(2px);}
		}

		.bounce-1{
		animation: bounce 2s infinite;
		-webkit-animation: bounce 2s infinite;
		-moz-animation: bounce 2s infinite;
		-o-animation: bounce 2s infinite;
		animation-delay: 0.6s;
		}
		.bounce-2{
		animation: bounce-2 2s infinite;
		-webkit-animation: bounce-2 2s infinite;
		-moz-animation: bounce-2 2s infinite;
		-o-animation: bounce-2 2s infinite;
		animation-delay: 0.6s;
		}
	</style>
	<g class="bounce-2">
		<linearGradient id="SVGID_1_" gradientUnits="userSpaceOnUse" x1="19.053" y1="36.2207" x2="58.4614" y2="-3.1877">
			<stop  offset="0" style="stop-color:#0022FF"/>
			<stop  offset="1" style="stop-color:#3E6EFF"/>
		</linearGradient>
		<path class="st0" d="M23.1,8.6h25.4l0,0c0.5,0,0.9,0.4,0.9,0.9v20.1l0,0c0,0.5-0.4,0.9-0.9,0.9h-1.5l0,0c-0.5,0-0.9-0.4-0.9-0.9
			v-2.5l0,0c0-1-0.8-1.9-1.9-1.9h-8.6l0,0c-1,0-1.9,0.8-1.9,1.9c0,0,0,0,0,0.1l0.1,2.3l0,0c0,0.5-0.4,1-0.9,1c0,0,0,0,0,0h-3.4l0,0
			c-0.5,0-0.9,0.4-0.9,0.9c0,0.3,0.1,0.5,0.3,0.7l0,0c0.8,0.7,1.7,2.2,2.7,4.4l0,0c0.3,0.7,1,1.1,1.7,1.1l18.6,0.1
			c2.7,0,4.9-2.3,4.9-5V6.4c0-2.8-2.2-5-4.9-5v1.9c1.7,0,3,1.4,3,3.2v26.2c0,1.7-1.4,3.2-3,3.2l-18.4-0.1c-0.4-1.2-1-2.4-1.8-3.4l2,0
			l0,0c1,0,1.9-0.8,1.9-1.9c0,0,0,0,0,0V28l0,0c0-0.5,0.4-0.9,0.9-0.9h6.8l0,0c0.5,0,0.9,0.4,0.9,0.9v2.5l0,0c0,1,0.8,1.9,1.9,1.9h3.4
			l0,0c1,0,1.9-0.8,1.9-1.9v-22l0,0c0-1-0.8-1.9-1.9-1.9H22.1l0,0c-1,0-1.9,0.8-1.9,1.9V9c-1.1-0.5-2.2-0.8-3.4-0.9V6.4
			c0-1.7,1.4-3.2,3-3.2h31.8V1.4H19.9c-2.7,0-4.9,2.3-4.9,5v2h0c0,0.9,0.7,1.7,1.6,1.9c2,0.3,3.4,0.7,4.2,1.1l0,0l0,0
			c0.4,0.3,1,0.1,1.3-0.3c0.1-0.1,0.1-0.3,0.1-0.5V9.5l0,0C22.1,9,22.5,8.6,23.1,8.6z"/>
		</g>
		<g id="men" class="bounce-1">
			<linearGradient id="SVGID_2_" gradientUnits="userSpaceOnUse" x1="7.0179" y1="29.7158" x2="24.2145" y2="12.5193">
				<stop  offset="0" style="stop-color:#0022FF"/>
				<stop  offset="1" style="stop-color:#3E6EFF"/>
			</linearGradient>
			<path class="st1" d="M15.9,29.7c4.9,0,8.9-4,8.9-8.9s-4-8.9-8.9-8.9S7,15.9,7,20.9S11,29.7,15.9,29.7v-1.9c-3.9,0-7-3.1-7-7
				s3.1-7,7-7s7,3.1,7,7s-3.1,7-7,7V29.7z"/>

				<linearGradient id="SVGID_3_" gradientUnits="userSpaceOnUse" x1="-284.9749" y1="337.0888" x2="-284.5363" y2="336.6503" gradientTransform="matrix(58.2501 0 0 -47 16602.543 15872)">
					<stop  offset="0" style="stop-color:#0022FF"/>
					<stop  offset="1" style="stop-color:#3E6EFF"/>
				</linearGradient>
				<path class="st2" d="M19.9,30.5c-0.3,0-0.6,0-0.9,0.1c-1.1,0.3-2.1,0.5-3.1,0.5c-1,0-2-0.2-3.1-0.5c-0.3-0.1-0.6-0.1-0.9-0.1
					c-5.7,0-10.2,4.6-10.2,10.3c0,2.7,2.2,4.9,4.9,4.9h18.5c2.7,0,4.9-2.2,4.9-4.9C30.1,35.1,25.5,30.5,19.9,30.5v1.9
					c4.6,0,8.4,3.8,8.3,8.4c0,1.6-1.4,3-3,3H6.6c-1.7,0-3-1.3-3-3c0-4.6,3.7-8.4,8.3-8.4c0.1,0,0.2,0,0.3,0c1.2,0.4,2.5,0.6,3.7,0.6
					c1.2,0,2.4-0.2,3.7-0.6c0.1,0,0.2,0,0.3,0V30.5z"/>
				</g>
			</svg>