<?xml version="1.0" encoding="UTF-8"?>
<svg version="1.1" id="Capa_1" xmlns="http://www.w3.org/2000/svg" xmlns:xlink="http://www.w3.org/1999/xlink" x="0px" y="0px"
  width="61px" height="47px" viewBox="0 0 61 47" style="enable-background:new 0 0 61 47;" xml:space="preserve">
  <style type="text/css">
   .st0{fill:none;stroke:url(#d);stroke-width:2;}
   .st1{fill:none;stroke:url(#c);stroke-width:2;}
   .st2{fill:none;stroke:url(#b);stroke-width:2;}
   .st3{fill:none;stroke:url(#a);stroke-width:2;}
   @keyframes offset {
   100% {
   stroke-dashoffset: 0;
   }
   }

   @keyframes offset-out {
   100% {
   stroke-width: 0px;
   }
   }
   @-webkit-keyframes rotating /* Safari and Chrome */ {
   from {
   -webkit-transform: rotate(0deg);
   -o-transform: rotate(0deg);
   transform: rotate(0deg);
   }
   to {
   -webkit-transform: rotate(360deg);
   -o-transform: rotate(360deg);
   transform: rotate(360deg);
   }
   }
   @keyframes rotating {
   from {
   -ms-transform: rotate(0deg);
   -moz-transform: rotate(0deg);
   -webkit-transform: rotate(0deg);
   -o-transform: rotate(0deg);
   transform: rotate(0deg);
   }
   to {
   -ms-transform: rotate(360deg);
   -moz-transform: rotate(360deg);
   -webkit-transform: rotate(360deg);
   -o-transform: rotate(360deg);
   transform: rotate(360deg);
   }
   }
   .rotating {
   -webkit-animation: rotating 4s linear infinite;
   -moz-animation: rotating 4s linear infinite;
   -ms-animation: rotating 4s linear infinite;
   -o-animation: rotating 4s linear infinite;
   animation: rotating 4s linear infinite;
   transform-origin: 45.9px 30.9px;
   }
   .offset{
   fill: none;
   stroke: #fff;
   stroke-width: 2px;
   stroke-dasharray: 1060;
   stroke-dashoffset: 1060;
   animation: offset 10s ease-in-out forwards;
   }
</style>
<g class="offset">
   <linearGradient id="d" x1="13.58" x2="24.871" y1="44.626" y2="33.335" gradientUnits="userSpaceOnUse">
    <stop stop-color="#02f" offset="0"/>
    <stop stop-color="#3E6EFF" offset="1"/>
</linearGradient>
<path class="st0" d="m29.6 39c-1.7-4-0.5-11.1-0.3-11.8 0.1-0.3 0.2-0.5 0.3-0.8-0.3 0-0.7-0.1-1-0.1h-1.5c-2 0.9-4.1 1.4-6.4 1.4s-4.4-0.5-6.4-1.4h-1.5c-6.5 0-11.8 5.3-11.8 11.8v3.7c0 2.3 1.9 4.2 4.2 4.2h30.9c0.5 0-4.5-2-6.5-7z"/>
<linearGradient id="c" x1="16.552" x2="24.48" y1="16.385" y2="8.4575" gradientUnits="userSpaceOnUse">
  <stop stop-color="#02f" offset="0"/>
  <stop stop-color="#3E6EFF" offset="1"/>
</linearGradient>
<circle class="st1" cx="20.7" cy="12.2" r="11.2"/>
<g cx="46.6" cy="30.9" r="4.3" class="rotating">
   <linearGradient id="b" x1="41.787" x2="50.985" y1="35.735" y2="26.537" gradientUnits="userSpaceOnUse">
      <stop stop-color="#02f" offset="0"/>
      <stop stop-color="#3E6EFF" offset="1"/>
  </linearGradient>
  <path class="st2" d="m58.9 34.1l-2.3-1.3c0.2-1.2 0.2-2.5 0-3.7l2.3-1.3c0.3-0.1 0.4-0.5 0.3-0.7-0.6-1.9-1.6-3.6-2.9-5-0.2-0.2-0.5-0.3-0.8-0.1l-2.3 1.3c-1-0.8-2.1-1.5-3.2-1.9v-2.6c0-0.3-0.2-0.6-0.5-0.6-2-0.4-4-0.4-5.8 0-0.3 0.1-0.5 0.3-0.5 0.6v2.6c-1.2 0.4-2.3 1.1-3.2 1.9l-2.3-1.3c-0.3-0.1-0.6-0.1-0.8 0.1-1.3 1.4-2.3 3.1-2.9 5-0.1 0.3 0 0.6 0.3 0.7l2.3 1.3c-0.2 1.2-0.2 2.5 0 3.7l-2.3 1.3c-0.3 0.1-0.4 0.5-0.3 0.7 0.6 1.9 1.6 3.6 2.9 5 0.2 0.2 0.5 0.3 0.8 0.1l2.3-1.3c1 0.8 2.1 1.5 3.2 1.9v2.6c0 0.3 0.2 0.6 0.5 0.6 2 0.4 4 0.4 5.8 0 0.3-0.1 0.5-0.3 0.5-0.6v-2.6c1.2-0.4 2.3-1.1 3.2-1.9l2.3 1.3c0.3 0.1 0.6 0.1 0.8-0.1 1.3-1.4 2.3-3.1 2.9-5 0.1-0.2 0-0.5-0.3-0.7z"/>
  <linearGradient id="a" x1="44.818" x2="48.222" y1="32.715" y2="29.311" gradientUnits="userSpaceOnUse">
      <stop stop-color="#02f" offset="0"/>
      <stop stop-color="#3E6EFF" offset="1"/>
  </linearGradient>
  <circle class="st3" cx="46.6" cy="30.9" r="4.3"/>
</g>
</g>
</svg>

