<?xml version="1.0" encoding="utf-8"?>
<svg version="1.1" id="Capa_1" xmlns="http://www.w3.org/2000/svg" xmlns:xlink="http://www.w3.org/1999/xlink" x="0px" y="0px"
  width="48px" height="45px" viewBox="0 0 48 45" style="enable-background:new 0 0 48 45;" xml:space="preserve">
  <style type="text/css">
   .st0{fill:none;stroke:url(#Stroke-169_1_);}
   .st1{fill:none;stroke:url(#Stroke-170_1_);}
   .st2{fill:none;stroke:url(#Stroke-171_1_);}
   .st3{fill:none;stroke:url(#Stroke-168_1_);}
   .st4{fill:none;stroke:url(#Stroke-167_1_);}
   @keyframes offset {
   100% {
   stroke-dashoffset: 0;
   }
   }
   .offset{
   fill: none;
   stroke: #fff;
   stroke-width: 2px;
   stroke-dasharray: 400;
   stroke-dashoffset: 400;
   animation-delay: 10s;
   animation: offset 3s ease-in-out alternate infinite;
   }
</style>
<g id="computer" class="offset">
	
  <linearGradient id="Stroke-169_1_" gradientUnits="userSpaceOnUse" x1="-273.496" y1="292.3643" x2="-272.496" y2="291.3643" gradientTransform="matrix(13.6957 0 0 -5.8696 3762.8484 1753.4562)">
      <stop  offset="0" style="stop-color:#0022FF"/>
      <stop  offset="1" style="stop-color:#3E6EFF"/>
  </linearGradient>
  <polygon id="Stroke-169" class="st0" points="31.3,43.1 17.6,43.1 19.6,37.2 29.4,37.2 	"/>

  <linearGradient id="Stroke-170_1_" gradientUnits="userSpaceOnUse" x1="-287.0643" y1="330.35" x2="-286.0643" y2="329.35" gradientTransform="matrix(37.1739 0 0 -23.4783 10677.1953 7761.9351)">
      <stop  offset="0" style="stop-color:#0022FF"/>
      <stop  offset="1" style="stop-color:#3E6EFF"/>
  </linearGradient>
  <polygon id="Stroke-170" class="st1" points="43.1,29.4 5.9,29.4 5.9,5.9 43.1,5.9 	"/>

  <linearGradient id="Stroke-171_1_" gradientUnits="userSpaceOnUse" x1="-144.2222" y1="191.1999" x2="-143.2222" y2="190.1999" gradientTransform="matrix(1.9565 0 0 -1.9565 305.674 406.3907)">
      <stop  offset="0" style="stop-color:#0022FF"/>
      <stop  offset="1" style="stop-color:#3E6EFF"/>
  </linearGradient>
  <path id="Stroke-171" class="st2" d="M25.5,33.3c0,0.5-0.4,1-1,1c-0.5,0-1-0.4-1-1s0.4-1,1-1C25,32.3,25.5,32.7,25.5,33.3
      L25.5,33.3z"/>

      <linearGradient id="Stroke-168_1_" gradientUnits="userSpaceOnUse" x1="-283.9802" y1="46.25" x2="-282.9802" y2="45.25" gradientTransform="matrix(27.3913 0 0 -1 7796.2173 89.0652)">
          <stop  offset="0" style="stop-color:#0022FF"/>
          <stop  offset="1" style="stop-color:#3E6EFF"/>
      </linearGradient>
      <path id="Stroke-168" class="st3" d="M10.8,43.1h27.4"/>

      <linearGradient id="Stroke-167_1_" gradientUnits="userSpaceOnUse" x1="-288.4445" y1="334.7946" x2="-287.4445" y2="333.7946" gradientTransform="matrix(45 0 0 -36.1957 12981.9785 12119.1084)">
          <stop  offset="0" style="stop-color:#0022FF"/>
          <stop  offset="1" style="stop-color:#3E6EFF"/>
      </linearGradient>
      <path id="Stroke-167" class="st4" d="M47,34.2c0,1.7-1.3,3-2.9,3H4.9c-1.6,0-2.9-1.3-2.9-3V4c0-1.7,1.3-3,2.9-3H44
          C45.7,1,47,2.4,47,4V34.2L47,34.2z"/>
      </g>
  </svg>
