<?xml version="1.0" encoding="UTF-8"?>
<svg width="1440px" height="308px" viewBox="0 0 1440 308" version="1.1" xmlns="http://www.w3.org/2000/svg" xmlns:xlink="http://www.w3.org/1999/xlink">
    <!-- Generator: Sketch 46.1 (44463) - http://www.bohemiancoding.com/sketch -->
    <title>mask_fancy</title>
    <desc>Created with Sketch.</desc>
    <defs>
        <path d="M1.02488687,262.17431 C1195.5,236.801648 1153.5,-171.086649 1599,83.0322534 C1598.62986,83.0322534 1597.94451,157.354836 1596.94396,306 L1.02488687,306 C-0.341628957,276.973814 -0.341628957,262.365251 1.02488687,262.17431 Z" id="path-1"></path>
        <linearGradient x1="101.395528%" y1="100%" x2="75.8115579%" y2="100%" id="linearGradient-2">
            <stop stop-color="#EBEBEB" stop-opacity="0" offset="0%"></stop>
            <stop stop-color="#FFFFFF" offset="100%"></stop>
        </linearGradient>
        <linearGradient x1="96.0291884%" y1="100%" x2="14.4791667%" y2="100%" id="linearGradient-3">
            <stop stop-color="#FFFFFF" stop-opacity="0" offset="0%"></stop>
            <stop stop-color="#FFFFFF" offset="100%"></stop>
        </linearGradient>
        <path d="M384.952133,183.849209 C1578.07918,139.875967 1409.85098,-72.511972 1849,149.6331 C1849,150.002009 1849,180.461617 1849,241.011924 L384.952133,253 C383.682622,207.200751 383.682622,184.150487 384.952133,183.849209 Z" id="path-4"></path>
    </defs>
    <g id="HomePage" stroke="none" stroke-width="1" fill="none" fill-rule="evenodd">
        <g id="BAIT-Desktop-Menu" transform="translate(0.000000, -465.000000)">
            <g id="Slider" transform="translate(-40.000000, 0.000000)">
                <g id="mask_fancy" transform="translate(0.000000, 466.000000)">
                    <g id="Rectangle-2" transform="translate(799.500000, 153.000000) scale(-1, 1) translate(-799.500000, -153.000000) ">
                        <use fill-opacity="0.05" fill="#FFFFFF" fill-rule="evenodd" xlink:href="#path-1"></use>
                        <path stroke-opacity="0.2" stroke="#FFFFFF" stroke-width="1" d="M0.955694796,261.67912 L1.01426842,261.674422 C205.992747,257.320335 384.690717,241.559172 543.304555,215.681135 C675.574236,194.101179 790.249392,166.254942 900.35917,131.223946 C941.265961,118.20961 980.341114,104.62906 1024.43288,88.3797787 C1045.46496,80.6287562 1114.29217,54.6645429 1127.55788,49.7634699 C1204.03886,21.5072541 1251.05178,7.87416157 1298.97321,2.14833589 C1390.60941,-8.80068764 1478.60758,13.7832502 1599.24774,82.597942 L1600.88569,83.5322534 L1599,83.5322534 C1599.51336,83.5322534 1599.36672,85.279603 1599.42642,83.925241 C1599.401,84.5018837 1599.37426,85.3699503 1599.34628,86.5282018 C1599.29021,88.8487781 1599.22919,92.3311972 1599.16324,96.9748376 C1599.03132,106.264158 1598.87969,120.198916 1598.70836,138.778801 C1598.36569,175.93959 1597.94422,231.681164 1597.44395,306.003366 L1597.4406,306.5 L0.547872438,306.5 L0.525440052,306.023513 C-0.158155748,291.503243 -0.5,280.587681 -0.5,273.273938 C-0.5,265.243859 -0.185573458,261.838588 0.955694796,261.67912 Z"></path>
                    </g>
                    <g id="Rectangle-2" transform="translate(1116.500000, 151.500000) scale(-1, 1) translate(-1116.500000, -151.500000) ">
                        <use fill-opacity="0.15" fill="url(#linearGradient-2)" fill-rule="evenodd" xlink:href="#path-4"></use>
                        <path stroke="url(#linearGradient-3)" stroke-width="1" d="M384.83668,183.362721 L384.933718,183.349548 C680.099138,172.471092 910.751915,150.997143 1108.93233,120.228344 C1163.09213,111.819681 1213.13706,103.008274 1266.43802,92.7560117 C1294.68745,87.3223282 1376.31241,70.9700563 1385.18926,69.2388624 C1467.0729,53.2696286 1511.76188,47.7960025 1558.19444,49.9014674 C1635.06108,53.3869533 1712.05331,79.7978021 1849.22569,149.186936 L1849.5,149.325695 L1849.5,241.507847 L384.465911,253.503998 L384.452325,253.013854 C383.817452,230.109999 383.5,212.893569 383.5,201.362866 C383.5,188.721805 383.777684,183.61404 384.83668,183.362721 Z"></path>
                    </g>
                </g>
            </g>
        </g>
    </g>
</svg>